<svg width="32" height="33" viewBox="0 0 32 33" fill="none" xmlns="http://www.w3.org/2000/svg">
<path d="M11.2 0.77179H3.2C1.43269 0.77179 0 2.20448 0 3.97179V15.1718C0 16.9391 1.43269 18.3718 3.2 18.3718H11.2C12.9673 18.3718 14.4 16.9391 14.4 15.1718V3.97179C14.4 2.20448 12.9673 0.77179 11.2 0.77179Z" fill="#FBFBFB"/>
<path d="M28.8 0.77179H20.8C19.0327 0.77179 17.6 2.20448 17.6 3.97179V8.77179C17.6 10.5391 19.0327 11.9718 20.8 11.9718H28.8C30.5673 11.9718 32 10.5391 32 8.77179V3.97179C32 2.20448 30.5673 0.77179 28.8 0.77179Z" fill="#FBFBFB"/>
<path d="M11.2 21.5718H3.2C1.43269 21.5718 0 23.0045 0 24.7718V29.5718C0 31.3391 1.43269 32.7718 3.2 32.7718H11.2C12.9673 32.7718 14.4 31.3391 14.4 29.5718V24.7718C14.4 23.0045 12.9673 21.5718 11.2 21.5718Z" fill="#FBFBFB"/>
<path d="M28.8 15.1718H20.8C19.0327 15.1718 17.6 16.6045 17.6 18.3718V29.5718C17.6 31.3391 19.0327 32.7718 20.8 32.7718H28.8C30.5673 32.7718 32 31.3391 32 29.5718V18.3718C32 16.6045 30.5673 15.1718 28.8 15.1718Z" fill="#FBFBFB"/>
</svg>
