<svg width="128" height="106" viewBox="0 0 128 106" fill="none" xmlns="http://www.w3.org/2000/svg">
<path d="M115.225 19.2727H81.7778V7.23995C81.7778 2.79607 77.8271 0 72.9646 0C72.9646 0 54.4264 0 54.5275 0C49.7666 0 45.7143 2.79607 45.7143 7.23995V19.7799H12.7822C6.16533 19.7799 0 25.3873 0 32.7971C0 32.9974 0 92.4254 0 92.4254C0 100.686 6.1821 106 12.6984 106H115.275C121.763 106 128 101.137 128 92.7779C128 92.7779 128 32.6972 128 32.4436C127.95 24.9465 121.812 19.2727 115.225 19.2727ZM52.3175 7.10048H75.1746V19.7799H52.3175V7.10048ZM63.9604 88.9335C49.2856 88.9335 37.3724 77.0382 37.3724 62.3853C37.3724 47.6538 49.2069 35.6799 63.9604 35.6799C78.7139 35.6799 90.6271 47.5752 90.6271 62.3067C90.6271 77.0382 78.6352 88.9335 63.9604 88.9335ZM73.9012 68.2676C73.9012 72.4426 71.3503 75.6201 65.9591 76.8282V81.0033H62.2771V76.9595C59.0949 76.9595 55.8867 76.1192 54.335 75.2529L55.6759 69.8697C57.3851 70.7101 60.0676 71.7077 62.9079 71.7077C65.9586 71.7077 67.4575 70.3683 67.4575 68.5303C67.4575 66.6923 66.0109 65.9305 62.4874 64.5652C57.5959 62.8585 54.5453 60.3901 54.5453 56.0045C54.5453 51.9608 57.2277 48.7833 62.1455 47.7852V43.4002H65.8276V47.5752C68.8782 47.5752 71.0872 48.2057 72.7177 49.0719L71.2188 54.3237C70.0089 53.8247 68.0366 52.9843 65.3278 52.9843C62.6189 52.9843 61.1464 54.3237 61.1464 55.6627C61.1464 57.5007 62.8556 58.2097 66.5377 59.7064C71.5606 61.5454 73.9012 64.0925 73.9012 68.2676Z" fill="#FBFBFB"/>
</svg>
