<svg width="32" height="33" viewBox="0 0 32 33" fill="none" xmlns="http://www.w3.org/2000/svg">
<path d="M6.4 25.0545L2.08 29.5784C1.92 29.7381 1.65333 29.6317 1.65333 29.4188V27.2899C1.65333 27.077 1.44 26.8109 1.22667 26.8109H0.426667C0.213334 26.8109 0 27.077 0 27.2899V32.346C0 32.6121 0.106667 32.7186 0.373334 32.7186H5.44C5.65333 32.7186 5.86667 32.6121 5.86667 32.346V31.5477C5.86667 31.3348 5.70667 31.1219 5.44 31.1219H3.30667C3.04 31.1219 2.93333 30.8558 3.14667 30.6961L8.69333 24.8949C8.53333 24.8949 8.37333 24.8949 8.21333 24.8949C7.62667 24.8949 6.98667 24.9481 6.4 25.0545Z" fill="#FBFBFB"/>
<path d="M28.9067 30.6961C29.0667 30.8558 28.96 31.1219 28.6933 31.1219H26.56C26.3467 31.1219 26.1333 31.3348 26.1333 31.5477V32.346C26.1333 32.5589 26.4 32.7718 26.56 32.7718H31.6267C31.8933 32.7718 32 32.6653 32 32.3992V27.3431C32 27.1302 31.8933 26.9173 31.68 26.9173H30.88C30.6667 26.9173 30.4 27.077 30.4 27.3431V29.472C30.4 29.6849 30.1333 29.8446 29.9733 29.6317L27.4667 27.3963C26.8267 27.556 26.24 27.7157 25.6 27.8221L28.9067 30.6961Z" fill="#FBFBFB"/>
<path d="M26.6133 11.6957C18.5067 14.1972 12.1067 6.53312 3.2 10.1522C2.50667 10.4184 2.18667 11.0038 2.18667 11.8021V21.0096C2.18667 22.2337 3.2 22.9789 4.37333 22.6595C13.1733 19.9984 19.5733 27.6624 27.8933 24.203C28.48 23.9369 29.0133 23.3514 29.0133 22.5531V13.3456C28.96 12.2279 27.7867 11.3231 26.6133 11.6957ZM15.84 20.3177C13.92 20.3177 12.3733 18.7743 12.3733 16.8583C12.3733 14.9423 13.92 13.3988 15.84 13.3988C17.76 13.3988 19.3067 14.9423 19.3067 16.8583C19.3067 18.7743 17.76 20.3177 15.84 20.3177Z" fill="#FBFBFB"/>
<path d="M15.7333 4.29778C15.7333 4.03167 15.4667 3.97844 15.3067 4.13811L13.8133 5.62834C13.6533 5.78801 13.3333 5.73478 13.1733 5.62834L12.64 5.04289C12.48 4.88322 12.5333 4.67033 12.6933 4.51067L16.32 0.89154C16.48 0.731873 16.64 0.731873 16.8533 0.89154L20.4267 4.45744C20.5867 4.61711 20.64 4.88322 20.48 5.04289L19.9467 5.57512C19.7867 5.73478 19.4667 5.68156 19.3067 5.57512L17.8133 4.08489C17.6533 3.92522 17.3867 4.03166 17.3867 4.24455V8.12979C16.8533 7.97013 16.32 7.81046 15.7867 7.65079L15.7333 4.29778Z" fill="#FBFBFB"/>
</svg>
