<svg width="33" height="33" viewBox="0 0 33 33" fill="none" xmlns="http://www.w3.org/2000/svg">
<path d="M19.8465 31.365V29.365C19.8465 28.8317 20.3127 28.365 20.8455 28.365H27.5052C28.038 28.365 28.5042 27.8983 28.5042 27.365V5.36499C28.5042 4.83166 28.038 4.36499 27.5052 4.36499H20.8455C20.3127 4.36499 19.8465 3.89832 19.8465 3.36499V1.36499C19.8465 0.831657 20.3127 0.36499 20.8455 0.36499H29.8361C31.3012 0.36499 32.5 1.56499 32.5 3.03166V29.6983C32.5 31.165 31.3012 32.365 29.8361 32.365H20.8455C20.3127 32.365 19.8465 31.8983 19.8465 31.365Z" fill="#FBFBFB"/>
<path d="M0.799686 17.0317C0.400105 16.6317 0.400105 16.0317 0.799686 15.6317L9.79032 6.63166C10.1899 6.23166 10.7893 6.23166 11.1889 6.63166L12.5874 8.03166C12.987 8.43166 12.987 9.03166 12.5874 9.43166L8.85796 13.165C8.45837 13.565 8.72476 14.2983 9.32414 14.2983H23.5094C24.0421 14.2983 24.5083 14.6983 24.5083 15.2317V17.2317C24.5083 17.765 24.0421 18.2983 23.5094 18.2983H9.39074C8.79136 18.2983 8.52497 19.0317 8.92455 19.4317L12.654 23.165C13.0536 23.565 13.0536 24.165 12.654 24.565L11.2555 25.965C10.8559 26.365 10.2565 26.365 9.85692 25.965L0.799686 17.0317Z" fill="#FBFBFB"/>
</svg>
