<svg width="27" height="33" viewBox="0 0 27 33" fill="none" xmlns="http://www.w3.org/2000/svg">
<path d="M9.56181 29.4779C9.8918 31.3867 11.5478 32.7718 13.4994 32.7718C15.4515 32.7718 17.108 31.3867 17.4379 29.4779L17.4581 29.3617H9.54164L9.56181 29.4779Z" fill="#FBFBFB"/>
<path d="M26.9707 24.0205C26.6477 23.7 26.3186 23.429 26.0002 23.1667C24.6611 22.0637 23.5045 21.1112 23.5045 17.1562V14.0191C23.5045 9.4061 20.2368 5.35835 15.7157 4.34348C15.8969 3.99098 15.9887 3.62048 15.9887 3.24004C15.9887 1.87916 14.8723 0.77179 13.4997 0.77179C12.1276 0.77179 11.0113 1.87916 11.0113 3.24004C11.0113 3.62073 11.1031 3.99116 11.2844 4.34348C6.76304 5.35835 3.4956 9.4061 3.4956 14.0191V17.1562C3.4956 21.1112 2.33897 22.0638 0.99986 23.1667C0.681528 23.429 0.352358 23.7 0.0293631 24.0205L0 24.0497V27.162H27V24.0497L26.9707 24.0205Z" fill="#FBFBFB"/>
</svg>
