<svg width="32" height="33" viewBox="0 0 32 33" fill="none" xmlns="http://www.w3.org/2000/svg">
<path d="M14.5778 31.9547C14.7227 32.2033 14.9303 32.4096 15.1799 32.553C15.4294 32.6963 15.7122 32.7718 16 32.7718C16.2878 32.7718 16.5706 32.6963 16.8201 32.553C17.0697 32.4096 17.2773 32.2033 17.4222 31.9547L31.7028 9.18168C31.887 8.88397 31.9892 8.54289 31.9992 8.19298C32.0092 7.84306 31.9266 7.49671 31.7597 7.18898L28.7375 1.67837C28.5956 1.40799 28.3832 1.181 28.1228 1.02141C27.8625 0.861825 27.5638 0.775576 27.2584 0.77179H4.73978C4.43439 0.776427 4.13593 0.863439 3.87591 1.02364C3.61588 1.18383 3.40394 1.41127 3.26247 1.68193L0.240311 7.19253C0.0734401 7.50027 -0.00918 7.84661 0.000809461 8.19653C0.0107989 8.54645 0.113044 8.88752 0.297198 9.18524L14.5778 31.9547ZM14.1867 6.34639H27.1358L28.0869 8.07601L26.8425 10.0634H14.1867C13.7037 10.0484 13.2455 9.84609 12.9091 9.49918C12.5728 9.15228 12.3847 8.68807 12.3847 8.20488C12.3847 7.7217 12.5728 7.25749 12.9091 6.91058C13.2455 6.56368 13.7037 6.36133 14.1867 6.34639ZM4.86422 6.34639H6.93351C7.4165 6.36133 7.87471 6.56368 8.21107 6.91058C8.54744 7.25749 8.73554 7.7217 8.73554 8.20488C8.73554 8.68807 8.54744 9.15228 8.21107 9.49918C7.87471 9.84609 7.4165 10.0484 6.93351 10.0634H5.15577L3.91135 8.07601L4.86422 6.34639Z" fill="#FBFBFB"/>
</svg>
