<svg width="26" height="33" viewBox="0 0 26 33" fill="none" xmlns="http://www.w3.org/2000/svg">
<path fill-rule="evenodd" clip-rule="evenodd" d="M20.3205 8.87259C20.3205 13.9846 17.1811 18.3718 13.0007 18.3718C8.81701 18.3718 5.68086 13.9846 5.68086 8.87099C5.68086 3.76059 8.38107 0.77179 13.0007 0.77179C17.6203 0.77179 20.3205 3.75899 20.3205 8.87259ZM0.153563 29.799C0.779816 30.5318 3.47677 32.7718 13.0007 32.7718C22.5246 32.7718 25.22 30.5318 25.8478 29.8006C25.9061 29.7303 25.9491 29.6491 25.9743 29.5619C25.9994 29.4746 26.0062 29.3833 25.9942 29.2934C25.8511 27.8822 24.5595 21.5718 13.0007 21.5718C1.44186 21.5718 0.15031 27.8822 0.00553946 29.2934C-0.00624074 29.3834 0.000813087 29.4748 0.0262684 29.562C0.0517237 29.6493 0.0950429 29.7288 0.153563 29.799Z" fill="#FBFBFB"/>
</svg>
