<svg width="32" height="27" viewBox="0 0 32 27" fill="none" xmlns="http://www.w3.org/2000/svg">
<path d="M11.8933 16.857C15.4869 16.857 18.4 13.6694 18.4 9.73731C18.4 5.80522 15.4869 2.61763 11.8933 2.61763C8.2998 2.61763 5.38667 5.80522 5.38667 9.73731C5.38667 13.6694 8.2998 16.857 11.8933 16.857Z" fill="#FBFBFB"/>
<path d="M17.92 17.7008C16.2667 19.1775 14.1867 20.074 11.8933 20.074C9.6 20.074 7.46667 19.1775 5.86667 17.6481C2.93333 18.9665 0 20.6541 0 23.2911V24.3986C0 25.717 1.06667 26.7718 2.4 26.7718H21.44C22.7733 26.7718 23.84 25.717 23.84 24.3986V23.2911C23.7867 20.6541 20.9067 19.0193 17.92 17.7008Z" fill="#FBFBFB"/>
<path d="M26.1333 12.427C26.0267 12.3742 25.9733 12.3215 25.8667 12.2687C25.6533 12.1633 25.3867 12.1633 25.1733 12.3215C24.0533 13.0071 22.72 13.429 21.3333 13.429C21.1733 13.429 20.96 13.429 20.8 13.429C20.5333 14.1146 20.2667 14.8002 19.8933 15.3803C20.1067 15.4858 20.3733 15.5385 20.64 15.6967C23.68 17.0152 25.8133 18.6501 27.3067 20.8651H29.8667C31.04 20.8651 32 19.9158 32 18.7556V17.7535C32 15.1694 28.96 13.5872 26.1333 12.427Z" fill="#FBFBFB"/>
<path d="M25.5467 5.4655C25.5467 2.88132 23.6267 0.77179 21.3333 0.77179C20.16 0.77179 19.1467 1.29917 18.3467 2.09025C20.2133 3.98883 21.3867 6.67848 21.3867 9.68457C21.3867 9.84278 21.3867 9.94826 21.3867 10.1065C23.68 10.1065 25.5467 8.04968 25.5467 5.4655Z" fill="#FBFBFB"/>
</svg>
