<svg width="33" height="27" viewBox="0 0 33 27" fill="none" xmlns="http://www.w3.org/2000/svg">
<path fill-rule="evenodd" clip-rule="evenodd" d="M21.2897 1.19485C21.8577 0.630768 22.7787 0.630768 23.3467 1.19485L31.5774 9.36837C32.6769 10.4603 31.8981 12.3274 30.3432 12.3274H1.95455C1.15123 12.3274 0.5 11.6807 0.5 10.8829C0.5 10.0852 1.15123 9.43847 1.95455 9.43847H27.5339L21.2897 3.23762C20.7217 2.67352 20.7217 1.75895 21.2897 1.19485ZM5.46612 18.1051H31.0455C31.8488 18.1051 32.5 17.4585 32.5 16.6607C32.5 15.8629 31.8488 15.2163 31.0455 15.2163H2.65686C1.10183 15.2163 0.323062 17.0833 1.42263 18.1752L9.65329 26.3487C10.2213 26.9128 11.1423 26.9128 11.7103 26.3487C12.2784 25.7847 12.2784 24.8701 11.7103 24.306L5.46612 18.1051Z" fill="#FBFBFB"/>
</svg>
