<svg width="36" height="36" viewBox="0 0 36 36" fill="none" xmlns="http://www.w3.org/2000/svg">
<path d="M7.33333 27.5492C8.07614 26.9913 8.99947 26.6607 10 26.6607C12.4546 26.6607 14.4444 28.6505 14.4444 31.1051C14.4444 32.1057 14.1138 33.029 13.5559 33.7718M28.6667 27.5492C27.9239 26.9913 27.0005 26.6607 26 26.6607C23.5454 26.6607 21.5556 28.6505 21.5556 31.1051C21.5556 32.1057 21.8862 33.029 22.4441 33.7718M28.6665 14.2161C30.4236 14.2148 31.3447 14.1925 32.0587 13.8287C32.7276 13.4878 33.2716 12.9439 33.6124 12.2749C34 11.5143 34 10.5186 34 8.52735V7.46068C34 5.46939 34 4.47373 33.6124 3.71316C33.2716 3.04413 32.7276 2.5002 32.0587 2.15933C31.2981 1.77179 30.3024 1.77179 28.3111 1.77179H7.68889C5.6976 1.77179 4.70194 1.77179 3.94137 2.15933C3.27234 2.5002 2.72841 3.04413 2.38754 3.71316C2 4.47373 2 5.46939 2 7.46068V8.52735C2 10.5186 2 11.5143 2.38754 12.2749C2.72841 12.9439 3.27234 13.4878 3.94137 13.8287C4.65527 14.1925 5.5763 14.2148 7.33342 14.2161M28.6665 14.2161C28.6667 14.3311 28.6667 14.4495 28.6667 14.5718V28.0829C28.6667 30.0742 28.6667 31.0699 28.2791 31.8305C27.9383 32.4994 27.3943 33.0434 26.7253 33.3842C25.9648 33.7718 24.9691 33.7718 22.9778 33.7718H13.0222C11.0309 33.7718 10.0353 33.7718 9.2747 33.3842C8.60567 33.0434 8.06174 32.4994 7.72087 31.8305C7.33333 31.0699 7.33333 30.0742 7.33333 28.0829V14.5718C7.33333 14.4495 7.33333 14.3311 7.33342 14.2161M28.6665 14.2161C28.6652 12.4591 28.6428 11.5382 28.2791 10.8243C27.9383 10.1552 27.3943 9.61131 26.7253 9.27044C25.9648 8.8829 24.9691 8.8829 22.9778 8.8829H13.0222C11.0309 8.8829 10.0353 8.8829 9.2747 9.27044C8.60567 9.61131 8.06174 10.1552 7.72087 10.8243C7.35712 11.5382 7.33479 12.4591 7.33342 14.2161M21.5556 17.7718C21.5556 19.7355 19.9637 21.3273 18 21.3273C16.0363 21.3273 14.4444 19.7355 14.4444 17.7718C14.4444 15.8081 16.0363 14.2162 18 14.2162C19.9637 14.2162 21.5556 15.8081 21.5556 17.7718Z" stroke="#FBFBFB" stroke-width="3.55556" stroke-linecap="round" stroke-linejoin="round"/>
</svg>
